# xmcd
#
# Track frame offsets:
#	150
#	12862
#	24982
#	36532
#	48925
#	61315
#	74785
#	85057
#	99957
#	113392
#	126455
#	139565
#	153445
#	167042
#	181542
#	195972
#	209517
#	221460
#	235912
#	249267
#	263235
#	275587
#	287790
#
# Disc length: 4014 seconds
# Revision: 3
# Processed by: cddbd v1.5.2PL0 Copyright (c) Steve Scherf et al.
# Submitted via: dBpowerAMP V12.0
#
DISCID=400fac17
DTITLE=Various Artist - Vol.5: Detroit 1951-1953
DYEAR=2004
DGENRE=Blues
TTITLE0=John Lee Hooker and Eddie Kirkland - It Hurts Me So
TTITLE1=John Lee Hooker and Eddie Kirkland - I Got Eyes for You
TTITLE2=John Lee Hooker and Eddie Kirkland - Key to the Highway
TTITLE3=John Lee Hooker and Eddie Kirkland - I Got the Key
TTITLE4=John Lee Hooker and Eddie Kirkland - Bluebird Blues
TTITLE5=John Lee Hooker and Eddie Kirkland - It's Time for Lovin' to Be Done
TTITLE6=John Lee Hooker and Eddie Kirkland - That's All Right
TTITLE7=John Lee Hooker - It's Been a Long Time Baby
TTITLE8=John Lee Hooker - Ride 'Til I Die
TTITLE9=John Lee Hooker - I Tried Hard
TTITLE10=John Lee Hooker - Rock House Boogie
TTITLE11=John Lee Hooker - It's Stormin' and Rainin'
TTITLE12=John Lee Hooker - Let's Talk It Over
TTITLE13=John Lee Hooker - Cool Little Car
TTITLE14=John Lee Hooker - Lookin' for a Woman
TTITLE15=John Lee Hooker - It's My Own Fault
TTITLE16=John Lee Hooker - Juke Bug
TTITLE17=John Lee Hooker - Blues for Big Town
TTITLE18=John Lee Hooker - Women and Money
TTITLE19=John Lee Hooker - Boogie Rambler
TTITLE20=John Lee Hooker - No More Doggin'
TTITLE21=John Lee Hooker - Love Money Can't Buy
TTITLE22=John Lee Hooker - Please Take Me Back
EXTD=
EXTT0=
EXTT1=
EXTT2=
EXTT3=
EXTT4=
EXTT5=
EXTT6=
EXTT7=
EXTT8=
EXTT9=
EXTT10=
EXTT11=
EXTT12=
EXTT13=
EXTT14=
EXTT15=
EXTT16=
EXTT17=
EXTT18=
EXTT19=
EXTT20=
EXTT21=
EXTT22=
PLAYORDER=
